  0
SECTION
  2
HEADER
  9
$ACADVER
  1
AC1009
  9
$FILLMODE
 70
0
  9
$EXTMIN
 10
-5.5170
 20
-0.2032
 30
0.0000
  9
$EXTMAX
 10
53.7125
 20
30.6832
 30
0.0000
  0
ENDSEC
  0
SECTION
  2
TABLES
  0
TABLE
  2
LTYPE
 70
1
  0
LTYPE
  2
CONTINUOUS
 70
64
  3
Solid line
 72
65
 73
0
 40
0
  0
ENDTAB
  0
TABLE
  2
LAYER
 70
255
  0
LAYER
  2
20
 70
64
 62
31
  6
CONTINUOUS
  0
LAYER
  2
21
 70
64
 62
253
  6
CONTINUOUS
  0
LAYER
  2
23
 70
64
 62
53
  6
CONTINUOUS
  0
LAYER
  2
51
 70
64
 62
253
  6
CONTINUOUS
  0
ENDTAB
  0
ENDSEC
  0
SECTION
  2
BLOCKS
  0
BLOCK
  8
0
  2
RECT
 70
64
 10
0.0000
 20
0.0000
 30
0.0000
  3
RECT
  0
SOLID
  8
0
 10
-0.5000
 20
-0.5000
 30
0.0000
 11
0.5000
 21
-0.5000
 31
0.0000
 12
-0.5000
 22
0.5000
 32
0.0000
 13
0.5000
 23
0.5000
 33
0.0000
  0
ENDBLK
  8
0
  0
BLOCK
  8
0
  2
PIE
 70
64
 10
0.0000
 20
0.0000
 30
0.0000
  3
PIE
  0
CIRCLE
  8
0
 10
0.0000
 20
0.0000
 30
0.0000
 40
0.5000
  0
ENDBLK
  8
0
  0
BLOCK
  8
0
  2
OCTAGONP
 70
64
 10
0.0000
 20
0.0000
 30
0.0000
  3
OCTAGONP
  0
POLYLINE
  8
0
 66
1
 10
0.0000
 20
0.0000
 30
0.0000
 40
0.0000
 41
0.0000
 70
1
  0
VERTEX
  8
0
 10
-0.5000
 20
-0.2071
 30
0.0000
  0
VERTEX
  8
0
 10
-0.5000
 20
0.2071
 30
0.0000
  0
VERTEX
  8
0
 10
-0.2071
 20
0.5000
 30
0.0000
  0
VERTEX
  8
0
 10
0.2071
 20
0.5000
 30
0.0000
  0
VERTEX
  8
0
 10
0.5000
 20
0.2071
 30
0.0000
  0
VERTEX
  8
0
 10
0.5000
 20
-0.2071
 30
0.0000
  0
VERTEX
  8
0
 10
0.2071
 20
-0.5000
 30
0.0000
  0
VERTEX
  8
0
 10
-0.2071
 20
-0.5000
 30
0.0000
  0
SEQEND
  8
0
  0
ENDBLK
  8
0
  0
BLOCK
  8
0
  2
SQUAREP
 70
64
 10
0.0000
 20
0.0000
 30
0.0000
  3
SQUAREP
  0
SOLID
  8
0
 10
-0.5000
 20
-0.5000
 30
0.0000
 11
0.5000
 21
-0.5000
 31
0.0000
 12
-0.5000
 22
0.5000
 32
0.0000
 13
0.5000
 23
0.5000
 33
0.0000
  0
ENDBLK
  8
0
  0
BLOCK
  8
0
  2
ROUNDP
 70
64
 10
0.0000
 20
0.0000
 30
0.0000
  3
ROUNDP
  0
CIRCLE
  8
0
 10
0.0000
 20
0.0000
 30
0.0000
 40
0.5000
  0
ENDBLK
  8
0
  0
BLOCK
  8
0
  2
ANNULUSP
 70
64
 10
0.0000
 20
0.0000
 30
0.0000
  3
ANNULUSP
  0
CIRCLE
  8
0
 10
0.0000
 20
0.0000
 30
0.0000
 40
0.5000
  0
ENDBLK
  8
0
  0
BLOCK
  8
0
  2
THERMALP
 70
64
 10
0.0000
 20
0.0000
 30
0.0000
  3
THERMALP
  0
LINE
  8
0
 10
-0.2379
 20
0.4500
 30
0.0000
 11
0.2379
 21
0.4500
 31
0.0000
  0
LINE
  8
0
 10
0.4500
 20
0.2379
 30
0.0000
 11
0.4500
 21
-0.2379
 31
0.0000
  0
LINE
  8
0
 10
0.2379
 20
-0.4500
 30
0.0000
 11
-0.2379
 21
-0.4500
 31
0.0000
  0
LINE
  8
0
 10
-0.4500
 20
-0.2379
 30
0.0000
 11
-0.4500
 21
0.2379
 31
0.0000
  0
ENDBLK
  8
0
  0
BLOCK
  8
0
  2
OCTAGONV
 70
64
 10
0.0000
 20
0.0000
 30
0.0000
  3
OCTAGONV
  0
POLYLINE
  8
0
 66
1
 10
0.0000
 20
0.0000
 30
0.0000
 40
0.0000
 41
0.0000
 70
1
  0
VERTEX
  8
0
 10
-0.5000
 20
-0.2071
 30
0.0000
  0
VERTEX
  8
0
 10
-0.5000
 20
0.2071
 30
0.0000
  0
VERTEX
  8
0
 10
-0.2071
 20
0.5000
 30
0.0000
  0
VERTEX
  8
0
 10
0.2071
 20
0.5000
 30
0.0000
  0
VERTEX
  8
0
 10
0.5000
 20
0.2071
 30
0.0000
  0
VERTEX
  8
0
 10
0.5000
 20
-0.2071
 30
0.0000
  0
VERTEX
  8
0
 10
0.2071
 20
-0.5000
 30
0.0000
  0
VERTEX
  8
0
 10
-0.2071
 20
-0.5000
 30
0.0000
  0
SEQEND
  8
0
  0
ENDBLK
  8
0
  0
BLOCK
  8
0
  2
SQUAREV
 70
64
 10
0.0000
 20
0.0000
 30
0.0000
  3
SQUAREV
  0
SOLID
  8
0
 10
-0.5000
 20
-0.5000
 30
0.0000
 11
0.5000
 21
-0.5000
 31
0.0000
 12
-0.5000
 22
0.5000
 32
0.0000
 13
0.5000
 23
0.5000
 33
0.0000
  0
ENDBLK
  8
0
  0
BLOCK
  8
0
  2
ROUNDV
 70
64
 10
0.0000
 20
0.0000
 30
0.0000
  3
ROUNDV
  0
CIRCLE
  8
0
 10
0.0000
 20
0.0000
 30
0.0000
 40
0.5000
  0
ENDBLK
  8
0
  0
BLOCK
  8
0
  2
ANNULUSV
 70
64
 10
0.0000
 20
0.0000
 30
0.0000
  3
ANNULUSV
  0
CIRCLE
  8
0
 10
0.0000
 20
0.0000
 30
0.0000
 40
0.5000
  0
ENDBLK
  8
0
  0
BLOCK
  8
0
  2
THERMALV
 70
64
 10
0.0000
 20
0.0000
 30
0.0000
  3
THERMALV
  0
LINE
  8
0
 10
-0.2379
 20
0.4500
 30
0.0000
 11
0.2379
 21
0.4500
 31
0.0000
  0
LINE
  8
0
 10
0.4500
 20
0.2379
 30
0.0000
 11
0.4500
 21
-0.2379
 31
0.0000
  0
LINE
  8
0
 10
0.2379
 20
-0.4500
 30
0.0000
 11
-0.2379
 21
-0.4500
 31
0.0000
  0
LINE
  8
0
 10
-0.4500
 20
-0.2379
 30
0.0000
 11
-0.4500
 21
0.2379
 31
0.0000
  0
ENDBLK
  8
0
  0
ENDSEC
  0
SECTION
  2
ENTITIES
  0
LINE
  8
20
 10
0.0000
 20
2.2860
 30
0.0000
 11
53.3200
 21
2.2860
 31
0.0000
  0
LINE
  8
20
 10
53.3200
 20
2.2860
 30
0.0000
 11
53.3200
 21
27.9400
 31
0.0000
  0
LINE
  8
20
 10
53.3200
 20
27.9400
 30
0.0000
 11
0.0000
 21
27.9400
 31
0.0000
  0
LINE
  8
20
 10
0.0000
 20
27.9400
 30
0.0000
 11
0.0000
 21
2.2860
 31
0.0000
  0
LINE
  8
21
 10
15.3035
 20
2.8575
 30
0.0000
 11
14.1605
 21
2.8575
 31
0.0000
  0
LINE
  8
21
 10
14.1605
 20
2.8575
 30
0.0000
 11
14.1605
 21
3.1750
 31
0.0000
  0
ARC
  8
21
 10
14.4780
 20
3.1750
 30
0.0000
 40
0.3175
 50
0.0000
 51
180.0000
  0
LINE
  8
21
 10
14.7955
 20
3.1750
 30
0.0000
 11
14.7955
 21
2.8575
 31
0.0000
  0
LINE
  8
21
 10
15.3035
 20
3.4925
 30
0.0000
 11
14.7955
 21
3.2385
 31
0.0000
  0
LINE
  8
21
 10
15.3035
 20
4.5409
 30
0.0000
 11
15.3035
 21
4.0329
 31
0.0000
  0
LINE
  8
21
 10
15.3035
 20
4.0329
 30
0.0000
 11
14.1605
 21
4.0329
 31
0.0000
  0
LINE
  8
21
 10
14.1605
 20
4.0329
 30
0.0000
 11
14.1605
 21
4.5409
 31
0.0000
  0
LINE
  8
21
 10
14.6685
 20
4.0329
 30
0.0000
 11
14.6685
 21
4.4139
 31
0.0000
  0
LINE
  8
21
 10
14.9860
 20
5.0579
 30
0.0000
 11
14.4780
 21
5.0579
 31
0.0000
  0
ARC
  8
21
 10
14.4780
 20
5.3754
 30
0.0000
 40
0.3175
 50
90.0000
 51
270.0000
  0
LINE
  8
21
 10
14.4780
 20
5.6929
 30
0.0000
 11
14.9860
 21
5.6929
 31
0.0000
  0
ARC
  8
21
 10
14.9860
 20
5.3754
 30
0.0000
 40
0.3175
 50
270.0000
 51
90.0000
  0
LINE
  8
21
 10
15.0495
 20
5.5659
 30
0.0000
 11
15.3035
 21
5.8199
 31
0.0000
  0
LINE
  8
21
 10
14.1605
 20
6.0623
 30
0.0000
 11
13.9065
 21
6.0623
 31
0.0000
  0
ARC
  8
21
 10
15.0495
 20
6.8116
 30
0.0000
 40
0.2540
 50
0.0000
 51
90.0000
  0
ARC
  8
21
 10
14.7669
 20
6.8116
 30
0.0000
 40
0.5366
 50
314.7603
 51
0.0000
  0
ARC
  8
21
 10
14.4145
 20
6.7164
 30
0.0000
 40
0.2540
 50
180.0000
 51
270.0000
  0
ARC
  8
21
 10
14.6368
 20
6.7164
 30
0.0000
 40
0.4763
 50
143.1301
 51
180.0000
  0
ARC
  8
21
 10
14.4145
 20
6.7203
 30
0.0000
 40
0.2580
 50
270.0000
 51
329.4898
  0
ARC
  8
21
 10
15.0495
 20
6.8076
 30
0.0000
 40
0.2580
 50
90.0000
 51
149.4898
  0
LINE
  8
21
 10
14.8273
 20
6.9386
 30
0.0000
 11
14.6368
 21
6.5894
 31
0.0000
  0
ARC
  8
21
 10
15.0495
 20
8.4880
 30
0.0000
 40
0.2540
 50
0.0000
 51
90.0000
  0
ARC
  8
21
 10
14.7669
 20
8.4880
 30
0.0000
 40
0.5366
 50
314.7603
 51
0.0000
  0
ARC
  8
21
 10
14.4145
 20
8.3928
 30
0.0000
 40
0.2540
 50
180.0000
 51
270.0000
  0
ARC
  8
21
 10
14.6368
 20
8.3928
 30
0.0000
 40
0.4763
 50
143.1301
 51
180.0000
  0
ARC
  8
21
 10
14.4145
 20
8.3967
 30
0.0000
 40
0.2580
 50
270.0000
 51
329.4898
  0
ARC
  8
21
 10
15.0495
 20
8.4840
 30
0.0000
 40
0.2580
 50
90.0000
 51
149.4898
  0
LINE
  8
21
 10
14.8273
 20
8.6150
 30
0.0000
 11
14.6368
 21
8.2658
 31
0.0000
  0
LINE
  8
21
 10
15.3035
 20
9.2500
 30
0.0000
 11
14.1605
 21
9.2500
 31
0.0000
  0
LINE
  8
21
 10
14.6685
 20
9.2500
 30
0.0000
 11
14.6685
 21
9.8850
 31
0.0000
  0
LINE
  8
21
 10
14.1605
 20
9.8850
 30
0.0000
 11
15.3035
 21
9.8850
 31
0.0000
  0
LINE
  8
21
 10
14.1605
 20
10.5200
 30
0.0000
 11
15.3035
 21
10.5200
 31
0.0000
  0
LINE
  8
21
 10
15.3035
 20
10.3930
 30
0.0000
 11
15.3035
 21
10.6470
 31
0.0000
  0
LINE
  8
21
 10
14.1605
 20
10.3930
 30
0.0000
 11
14.1605
 21
10.6470
 31
0.0000
  0
LINE
  8
21
 10
15.3035
 20
11.6655
 30
0.0000
 11
15.3035
 21
11.1575
 31
0.0000
  0
LINE
  8
21
 10
15.3035
 20
11.1575
 30
0.0000
 11
14.1605
 21
11.1575
 31
0.0000
  0
LINE
  8
21
 10
14.1605
 20
11.1575
 30
0.0000
 11
14.1605
 21
11.6655
 31
0.0000
  0
LINE
  8
21
 10
14.6685
 20
11.1575
 30
0.0000
 11
14.6685
 21
11.5385
 31
0.0000
  0
LINE
  8
21
 10
14.1605
 20
12.1481
 30
0.0000
 11
15.3035
 21
12.1481
 31
0.0000
  0
LINE
  8
21
 10
15.3035
 20
12.1481
 30
0.0000
 11
15.3035
 21
12.6561
 31
0.0000
  0
LINE
  8
21
 10
15.3035
 20
13.1362
 30
0.0000
 11
14.1605
 21
13.1362
 31
0.0000
  0
LINE
  8
21
 10
14.1605
 20
13.1362
 30
0.0000
 11
14.1605
 21
13.4537
 31
0.0000
  0
ARC
  8
21
 10
14.4780
 20
13.4537
 30
0.0000
 40
0.3175
 50
90.0000
 51
180.0000
  0
LINE
  8
21
 10
14.4780
 20
13.7712
 30
0.0000
 11
14.9860
 21
13.7712
 31
0.0000
  0
ARC
  8
21
 10
14.9860
 20
13.4537
 30
0.0000
 40
0.3175
 50
0.0000
 51
90.0000
  0
LINE
  8
21
 10
15.3035
 20
13.4537
 30
0.0000
 11
15.3035
 21
13.1362
 31
0.0000
  0
LINE
  8
21
 10
15.3035
 20
14.8659
 30
0.0000
 11
15.3035
 21
14.3579
 31
0.0000
  0
LINE
  8
21
 10
15.3035
 20
14.3579
 30
0.0000
 11
14.1605
 21
14.3579
 31
0.0000
  0
LINE
  8
21
 10
14.1605
 20
14.3579
 30
0.0000
 11
14.1605
 21
14.8659
 31
0.0000
  0
LINE
  8
21
 10
14.6685
 20
14.3579
 30
0.0000
 11
14.6685
 21
14.7389
 31
0.0000
  0
LINE
  8
21
 10
15.3035
 20
15.3460
 30
0.0000
 11
14.1605
 21
15.3460
 31
0.0000
  0
LINE
  8
21
 10
14.1605
 20
15.3460
 30
0.0000
 11
14.1605
 21
15.6635
 31
0.0000
  0
ARC
  8
21
 10
14.4780
 20
15.6635
 30
0.0000
 40
0.3175
 50
90.0000
 51
180.0000
  0
LINE
  8
21
 10
14.4780
 20
15.9810
 30
0.0000
 11
14.9860
 21
15.9810
 31
0.0000
  0
ARC
  8
21
 10
14.9860
 20
15.6635
 30
0.0000
 40
0.3175
 50
0.0000
 51
90.0000
  0
LINE
  8
21
 10
15.3035
 20
15.6635
 30
0.0000
 11
15.3035
 21
15.3460
 31
0.0000
  0
LINE
  8
21
 10
14.1605
 20
17.3959
 30
0.0000
 11
15.0495
 21
17.3959
 31
0.0000
  0
ARC
  8
21
 10
15.0495
 20
17.1419
 30
0.0000
 40
0.2540
 50
0.0000
 51
90.0000
  0
LINE
  8
21
 10
15.3035
 20
17.1419
 30
0.0000
 11
15.3035
 21
17.0149
 31
0.0000
  0
LINE
  8
21
 10
15.3035
 20
17.8733
 30
0.0000
 11
14.1605
 21
18.2543
 31
0.0000
  0
LINE
  8
21
 10
14.1605
 20
18.2543
 30
0.0000
 11
15.3035
 21
18.6353
 31
0.0000
  0
LINE
  8
21
 10
15.0178
 20
18.5400
 30
0.0000
 11
15.0178
 21
17.9685
 31
0.0000
  0
LINE
  8
21
 10
15.3035
 20
19.5841
 30
0.0000
 11
15.3035
 21
19.3301
 31
0.0000
  0
ARC
  8
21
 10
15.0495
 20
19.3301
 30
0.0000
 40
0.2540
 50
270.0000
 51
0.0000
  0
LINE
  8
21
 10
15.0495
 20
19.0761
 30
0.0000
 11
14.4145
 21
19.0761
 31
0.0000
  0
ARC
  8
21
 10
14.4145
 20
19.3301
 30
0.0000
 40
0.2540
 50
180.0000
 51
270.0000
  0
LINE
  8
21
 10
14.1605
 20
19.3301
 30
0.0000
 11
14.1605
 21
19.5841
 31
0.0000
  0
LINE
  8
21
 10
15.3035
 20
20.0894
 30
0.0000
 11
14.1605
 21
20.0894
 31
0.0000
  0
LINE
  8
21
 10
14.1605
 20
20.7244
 30
0.0000
 11
14.8590
 21
20.0894
 31
0.0000
  0
LINE
  8
21
 10
15.3035
 20
20.7244
 30
0.0000
 11
14.6050
 21
20.3434
 31
0.0000
  0
LINE
  8
21
 10
14.8590
 20
21.1880
 30
0.0000
 11
14.8590
 21
21.9500
 31
0.0000
  0
LINE
  8
21
 10
15.2400
 20
21.5690
 30
0.0000
 11
14.4780
 21
21.5690
 31
0.0000
  0
LINE
  8
21
 10
15.3035
 20
22.9750
 30
0.0000
 11
15.3035
 21
22.7210
 31
0.0000
  0
ARC
  8
21
 10
15.0495
 20
22.7210
 30
0.0000
 40
0.2540
 50
270.0000
 51
0.0000
  0
LINE
  8
21
 10
15.0495
 20
22.4670
 30
0.0000
 11
14.4145
 21
22.4670
 31
0.0000
  0
ARC
  8
21
 10
14.4145
 20
22.7210
 30
0.0000
 40
0.2540
 50
180.0000
 51
270.0000
  0
LINE
  8
21
 10
14.1605
 20
22.7210
 30
0.0000
 11
14.1605
 21
22.9750
 31
0.0000
  0
LINE
  8
21
 10
15.3035
 20
23.3597
 30
0.0000
 11
14.1605
 21
23.7407
 31
0.0000
  0
LINE
  8
21
 10
14.1605
 20
23.7407
 30
0.0000
 11
15.3035
 21
24.1217
 31
0.0000
  0
LINE
  8
21
 10
15.0178
 20
24.0264
 30
0.0000
 11
15.0178
 21
23.4549
 31
0.0000
  0
LINE
  8
21
 10
14.6685
 20
24.6233
 30
0.0000
 11
14.6685
 21
24.9408
 31
0.0000
  0
ARC
  8
21
 10
14.9860
 20
24.9408
 30
0.0000
 40
0.3175
 50
0.0000
 51
180.0000
  0
LINE
  8
21
 10
15.3035
 20
24.9408
 30
0.0000
 11
15.3035
 21
24.6233
 31
0.0000
  0
LINE
  8
21
 10
15.3035
 20
24.6233
 30
0.0000
 11
14.1605
 21
24.6233
 31
0.0000
  0
LINE
  8
21
 10
14.1605
 20
24.6233
 30
0.0000
 11
14.1605
 21
24.9408
 31
0.0000
  0
ARC
  8
21
 10
14.4145
 20
24.9408
 30
0.0000
 40
0.2540
 50
0.0000
 51
180.0000
  0
LINE
  8
21
 10
14.1605
 20
25.7498
 30
0.0000
 11
15.3035
 21
25.7498
 31
0.0000
  0
LINE
  8
21
 10
15.3035
 20
25.7498
 30
0.0000
 11
15.3035
 21
26.2578
 31
0.0000
  0
LINE
  8
21
 10
15.3035
 20
27.2484
 30
0.0000
 11
15.3035
 21
26.7404
 31
0.0000
  0
LINE
  8
21
 10
15.3035
 20
26.7404
 30
0.0000
 11
14.1605
 21
26.7404
 31
0.0000
  0
LINE
  8
21
 10
14.1605
 20
26.7404
 30
0.0000
 11
14.1605
 21
27.2484
 31
0.0000
  0
LINE
  8
21
 10
14.6685
 20
26.7404
 30
0.0000
 11
14.6685
 21
27.1214
 31
0.0000
  0
LINE
  8
21
 10
0.9271
 20
4.7879
 30
0.0000
 11
1.0795
 21
4.1021
 31
0.0000
  0
LINE
  8
21
 10
1.0795
 20
4.1021
 30
0.0000
 11
1.2319
 21
4.5593
 31
0.0000
  0
LINE
  8
21
 10
1.2319
 20
4.5593
 30
0.0000
 11
1.3843
 21
4.1021
 31
0.0000
  0
LINE
  8
21
 10
1.3843
 20
4.1021
 30
0.0000
 11
1.5367
 21
4.7879
 31
0.0000
  0
LINE
  8
21
 10
1.8415
 20
4.7879
 30
0.0000
 11
1.8415
 21
4.2926
 31
0.0000
  0
ARC
  8
21
 10
2.0320
 20
4.2926
 30
0.0000
 40
0.1905
 50
180.0000
 51
0.0000
  0
LINE
  8
21
 10
2.2225
 20
4.2926
 30
0.0000
 11
2.2225
 21
4.7879
 31
0.0000
  0
LINE
  8
21
 10
2.5780
 20
4.1021
 30
0.0000
 11
2.5780
 21
4.7879
 31
0.0000
  0
LINE
  8
21
 10
2.5780
 20
4.7879
 30
0.0000
 11
2.7685
 21
4.7879
 31
0.0000
  0
ARC
  8
21
 10
2.7685
 20
4.5974
 30
0.0000
 40
0.1905
 50
270.0000
 51
90.0000
  0
LINE
  8
21
 10
2.7685
 20
4.4069
 30
0.0000
 11
2.5780
 21
4.4069
 31
0.0000
  0
LINE
  8
21
 10
2.9590
 20
4.1021
 30
0.0000
 11
2.8066
 21
4.4069
 31
0.0000
  0
LINE
  8
21
 10
3.4036
 20
4.1021
 30
0.0000
 11
3.4036
 21
4.7879
 31
0.0000
  0
LINE
  8
21
 10
3.2131
 20
4.7879
 30
0.0000
 11
3.5941
 21
4.7879
 31
0.0000
  0
LINE
  8
21
 10
3.8760
 20
4.1021
 30
0.0000
 11
3.8760
 21
4.7879
 31
0.0000
  0
LINE
  8
21
 10
3.8760
 20
4.4831
 30
0.0000
 11
4.2570
 21
4.4831
 31
0.0000
  0
LINE
  8
21
 10
4.2570
 20
4.7879
 30
0.0000
 11
4.2570
 21
4.1021
 31
0.0000
  0
LINE
  8
21
 10
0.9271
 20
3.3401
 30
0.0000
 11
1.1557
 21
3.3401
 31
0.0000
  0
ARC
  8
21
 10
1.1557
 20
3.1877
 30
0.0000
 40
0.1524
 50
0.0000
 51
90.0000
  0
LINE
  8
21
 10
1.3081
 20
3.1877
 30
0.0000
 11
1.3081
 21
3.1496
 31
0.0000
  0
ARC
  8
21
 10
1.1176
 20
3.1496
 30
0.0000
 40
0.1905
 50
180.0000
 51
0.0000
  0
LINE
  8
21
 10
0.9271
 20
3.1496
 30
0.0000
 11
0.9271
 21
3.3401
 31
0.0000
  0
ARC
  8
21
 10
1.2319
 20
3.3401
 30
0.0000
 40
0.3048
 50
90.0000
 51
180.0000
  0
LINE
  8
21
 10
1.6129
 20
3.4925
 30
0.0000
 11
1.8034
 21
3.6449
 31
0.0000
  0
LINE
  8
21
 10
1.8034
 20
3.6449
 30
0.0000
 11
1.8034
 21
2.9591
 31
0.0000
  0
LINE
  8
21
 10
1.6129
 20
2.9591
 30
0.0000
 11
1.9939
 21
2.9591
 31
0.0000
  0
LINE
  8
21
 10
2.2987
 20
2.9591
 30
0.0000
 11
2.5273
 21
2.9591
 31
0.0000
  0
ARC
  8
21
 10
2.5273
 20
3.1115
 30
0.0000
 40
0.1524
 50
270.0000
 51
0.0000
  0
LINE
  8
21
 10
2.6797
 20
3.1115
 30
0.0000
 11
2.6797
 21
3.1877
 31
0.0000
  0
ARC
  8
21
 10
2.5273
 20
3.1877
 30
0.0000
 40
0.1524
 50
0.0000
 51
90.0000
  0
LINE
  8
21
 10
2.5273
 20
3.3401
 30
0.0000
 11
2.2987
 21
3.3401
 31
0.0000
  0
LINE
  8
21
 10
2.2987
 20
3.3401
 30
0.0000
 11
2.2987
 21
3.6449
 31
0.0000
  0
LINE
  8
21
 10
2.2987
 20
3.6449
 30
0.0000
 11
2.6797
 21
3.6449
 31
0.0000
  0
ARC
  8
21
 10
3.5497
 20
3.3020
 30
0.0000
 40
0.5652
 50
154.0108
 51
180.0000
  0
ARC
  8
21
 10
3.1750
 20
3.5039
 30
0.0000
 40
0.1410
 50
89.9998
 51
161.0756
  0
ARC
  8
21
 10
3.1750
 20
3.5039
 30
0.0000
 40
0.1410
 50
18.9244
 51
90.0002
  0
ARC
  8
21
 10
2.8004
 20
3.3020
 30
0.0000
 40
0.5652
 50
360.0000
 51
25.9892
  0
ARC
  8
21
 10
3.5497
 20
3.3020
 30
0.0000
 40
0.5652
 50
180.0000
 51
205.9892
  0
ARC
  8
21
 10
3.1750
 20
3.1001
 30
0.0000
 40
0.1410
 50
198.9244
 51
270.0002
  0
ARC
  8
21
 10
2.8004
 20
3.3020
 30
0.0000
 40
0.5652
 50
334.0108
 51
0.0000
  0
ARC
  8
21
 10
3.1750
 20
3.1001
 30
0.0000
 40
0.1410
 50
269.9998
 51
341.0756
  0
LINE
  8
21
 10
3.0226
 20
3.1115
 30
0.0000
 11
3.3274
 21
3.4925
 31
0.0000
  0
ARC
  8
21
 10
4.2355
 20
3.3020
 30
0.0000
 40
0.5652
 50
154.0108
 51
180.0000
  0
ARC
  8
21
 10
3.8608
 20
3.5039
 30
0.0000
 40
0.1410
 50
89.9998
 51
161.0756
  0
ARC
  8
21
 10
3.8608
 20
3.5039
 30
0.0000
 40
0.1410
 50
18.9244
 51
90.0002
  0
ARC
  8
21
 10
3.4862
 20
3.3020
 30
0.0000
 40
0.5652
 50
360.0000
 51
25.9892
  0
ARC
  8
21
 10
4.2355
 20
3.3020
 30
0.0000
 40
0.5652
 50
180.0000
 51
205.9892
  0
ARC
  8
21
 10
3.8608
 20
3.1001
 30
0.0000
 40
0.1410
 50
198.9244
 51
270.0002
  0
ARC
  8
21
 10
3.4862
 20
3.3020
 30
0.0000
 40
0.5652
 50
334.0108
 51
0.0000
  0
ARC
  8
21
 10
3.8608
 20
3.1001
 30
0.0000
 40
0.1410
 50
269.9998
 51
341.0756
  0
LINE
  8
21
 10
3.7084
 20
3.1115
 30
0.0000
 11
4.0132
 21
3.4925
 31
0.0000
  0
ARC
  8
21
 10
4.5466
 20
3.1496
 30
0.0000
 40
0.1905
 50
0.0000
 51
180.0000
  0
ARC
  8
21
 10
4.5466
 20
3.1496
 30
0.0000
 40
0.1905
 50
180.0000
 51
0.0000
  0
ARC
  8
21
 10
4.5466
 20
3.4925
 30
0.0000
 40
0.1524
 50
0.0000
 51
180.0000
  0
ARC
  8
21
 10
4.5466
 20
3.4925
 30
0.0000
 40
0.1524
 50
180.0000
 51
0.0000
  0
LINE
  8
21
 10
5.0419
 20
3.4925
 30
0.0000
 11
5.2324
 21
3.6449
 31
0.0000
  0
LINE
  8
21
 10
5.2324
 20
3.6449
 30
0.0000
 11
5.2324
 21
2.9591
 31
0.0000
  0
LINE
  8
21
 10
5.0419
 20
2.9591
 30
0.0000
 11
5.4229
 21
2.9591
 31
0.0000
  0
LINE
  8
21
 10
5.8801
 20
3.6449
 30
0.0000
 11
5.7277
 21
3.1115
 31
0.0000
  0
LINE
  8
21
 10
5.7277
 20
3.1115
 30
0.0000
 11
6.1087
 21
3.1115
 31
0.0000
  0
LINE
  8
21
 10
5.9944
 20
3.2639
 30
0.0000
 11
5.9944
 21
2.9591
 31
0.0000
  0
ARC
  8
21
 10
6.9787
 20
3.3020
 30
0.0000
 40
0.5652
 50
154.0108
 51
180.0000
  0
ARC
  8
21
 10
6.6040
 20
3.5039
 30
0.0000
 40
0.1410
 50
89.9998
 51
161.0756
  0
ARC
  8
21
 10
6.6040
 20
3.5039
 30
0.0000
 40
0.1410
 50
18.9244
 51
90.0002
  0
ARC
  8
21
 10
6.2294
 20
3.3020
 30
0.0000
 40
0.5652
 50
360.0000
 51
25.9892
  0
ARC
  8
21
 10
6.9787
 20
3.3020
 30
0.0000
 40
0.5652
 50
180.0000
 51
205.9892
  0
ARC
  8
21
 10
6.6040
 20
3.1001
 30
0.0000
 40
0.1410
 50
198.9244
 51
270.0002
  0
ARC
  8
21
 10
6.2294
 20
3.3020
 30
0.0000
 40
0.5652
 50
334.0108
 51
0.0000
  0
ARC
  8
21
 10
6.6040
 20
3.1001
 30
0.0000
 40
0.1410
 50
269.9998
 51
341.0756
  0
LINE
  8
21
 10
6.4516
 20
3.1115
 30
0.0000
 11
6.7564
 21
3.4925
 31
0.0000
  0
LINE
  8
21
 10
7.2517
 20
3.6449
 30
0.0000
 11
7.0993
 21
3.1115
 31
0.0000
  0
LINE
  8
21
 10
7.0993
 20
3.1115
 30
0.0000
 11
7.4803
 21
3.1115
 31
0.0000
  0
LINE
  8
21
 10
7.3660
 20
3.2639
 30
0.0000
 11
7.3660
 21
2.9591
 31
0.0000
  0
ARC
  8
21
 10
7.9947
 20
3.4735
 30
0.0000
 40
0.1715
 50
0.0000
 51
90.0000
  0
ARC
  8
21
 10
7.9947
 20
3.4246
 30
0.0000
 40
0.2203
 50
90.0000
 51
162.0547
  0
ARC
  8
21
 10
7.9820
 20
3.4735
 30
0.0000
 40
0.1842
 50
313.6028
 51
360.0000
  0
LINE
  8
21
 10
8.1090
 20
3.3401
 30
0.0000
 11
7.7851
 21
2.9591
 31
0.0000
  0
LINE
  8
21
 10
7.7851
 20
2.9591
 30
0.0000
 11
8.1661
 21
2.9591
 31
0.0000
  0
LINE
  8
21
 10
8.4709
 20
3.4925
 30
0.0000
 11
8.6614
 21
3.6449
 31
0.0000
  0
LINE
  8
21
 10
8.6614
 20
3.6449
 30
0.0000
 11
8.6614
 21
2.9591
 31
0.0000
  0
LINE
  8
21
 10
8.4709
 20
2.9591
 30
0.0000
 11
8.8519
 21
2.9591
 31
0.0000
  0
POINT
  8
23
 10
49.1490
 20
21.4630
 30
0.0000
  0
LINE
  8
21
 10
53.6490
 20
15.4630
 30
0.0000
 11
50.6490
 21
15.4630
 31
0.0000
  0
LINE
  8
21
 10
50.6490
 20
15.4630
 30
0.0000
 11
47.6490
 21
15.4630
 31
0.0000
  0
LINE
  8
21
 10
47.6490
 20
15.4630
 30
0.0000
 11
44.6490
 21
15.4630
 31
0.0000
  0
LINE
  8
21
 10
53.6490
 20
15.4630
 30
0.0000
 11
53.6490
 21
25.9630
 31
0.0000
  0
LINE
  8
21
 10
53.6490
 20
25.9630
 30
0.0000
 11
48.9490
 21
25.9630
 31
0.0000
  0
LINE
  8
21
 10
48.9490
 20
25.9630
 30
0.0000
 11
44.6490
 21
25.9630
 31
0.0000
  0
LINE
  8
21
 10
44.6490
 20
25.9630
 30
0.0000
 11
44.6490
 21
15.4630
 31
0.0000
  0
LINE
  8
21
 10
50.6490
 20
15.4630
 30
0.0000
 11
50.6490
 21
17.4630
 31
0.0000
  0
LINE
  8
21
 10
50.6490
 20
17.4630
 30
0.0000
 11
47.6490
 21
17.4630
 31
0.0000
  0
LINE
  8
21
 10
47.6490
 20
17.4630
 30
0.0000
 11
47.6490
 21
15.4630
 31
0.0000
  0
LINE
  8
21
 10
49.3490
 20
26.0630
 30
0.0000
 11
49.3490
 21
28.1630
 31
0.0000
  0
LINE
  8
21
 10
49.3490
 20
28.1630
 30
0.0000
 11
48.9490
 21
28.1630
 31
0.0000
  0
LINE
  8
21
 10
48.9490
 20
28.1630
 30
0.0000
 11
48.9490
 21
25.9630
 31
0.0000
  0
CIRCLE
  8
21
 10
49.1490
 20
21.4630
 30
0.0000
 40
3.1623
  0
CIRCLE
  8
21
 10
49.1490
 20
21.4630
 30
0.0000
 40
2.6907
  0
LINE
  8
21
 10
45.5803
 20
27.1399
 30
0.0000
 11
45.5803
 21
26.6065
 31
0.0000
  0
ARC
  8
21
 10
45.4279
 20
26.6065
 30
0.0000
 40
0.1524
 50
270.0000
 51
0.0000
  0
LINE
  8
21
 10
45.4279
 20
26.4541
 30
0.0000
 11
45.3517
 21
26.4541
 31
0.0000
  0
LINE
  8
21
 10
45.9048
 20
26.9875
 30
0.0000
 11
46.0953
 21
27.1399
 31
0.0000
  0
LINE
  8
21
 10
46.0953
 20
27.1399
 30
0.0000
 11
46.0953
 21
26.4541
 31
0.0000
  0
LINE
  8
21
 10
45.9048
 20
26.4541
 30
0.0000
 11
46.2858
 21
26.4541
 31
0.0000
  0
POINT
  8
23
 10
39.6663
 20
21.4630
 30
0.0000
  0
LINE
  8
21
 10
44.1663
 20
15.4630
 30
0.0000
 11
41.1663
 21
15.4630
 31
0.0000
  0
LINE
  8
21
 10
41.1663
 20
15.4630
 30
0.0000
 11
38.1663
 21
15.4630
 31
0.0000
  0
LINE
  8
21
 10
38.1663
 20
15.4630
 30
0.0000
 11
35.1663
 21
15.4630
 31
0.0000
  0
LINE
  8
21
 10
44.1663
 20
15.4630
 30
0.0000
 11
44.1663
 21
25.9630
 31
0.0000
  0
LINE
  8
21
 10
44.1663
 20
25.9630
 30
0.0000
 11
39.4663
 21
25.9630
 31
0.0000
  0
LINE
  8
21
 10
39.4663
 20
25.9630
 30
0.0000
 11
35.1663
 21
25.9630
 31
0.0000
  0
LINE
  8
21
 10
35.1663
 20
25.9630
 30
0.0000
 11
35.1663
 21
15.4630
 31
0.0000
  0
LINE
  8
21
 10
41.1663
 20
15.4630
 30
0.0000
 11
41.1663
 21
17.4630
 31
0.0000
  0
LINE
  8
21
 10
41.1663
 20
17.4630
 30
0.0000
 11
38.1663
 21
17.4630
 31
0.0000
  0
LINE
  8
21
 10
38.1663
 20
17.4630
 30
0.0000
 11
38.1663
 21
15.4630
 31
0.0000
  0
LINE
  8
21
 10
39.8663
 20
26.0630
 30
0.0000
 11
39.8663
 21
28.1630
 31
0.0000
  0
LINE
  8
21
 10
39.8663
 20
28.1630
 30
0.0000
 11
39.4663
 21
28.1630
 31
0.0000
  0
LINE
  8
21
 10
39.4663
 20
28.1630
 30
0.0000
 11
39.4663
 21
25.9630
 31
0.0000
  0
CIRCLE
  8
21
 10
39.6663
 20
21.4630
 30
0.0000
 40
3.1623
  0
CIRCLE
  8
21
 10
39.6663
 20
21.4630
 30
0.0000
 40
2.6907
  0
LINE
  8
21
 10
36.4786
 20
27.1399
 30
0.0000
 11
36.4786
 21
26.6065
 31
0.0000
  0
ARC
  8
21
 10
36.3262
 20
26.6065
 30
0.0000
 40
0.1524
 50
270.0000
 51
0.0000
  0
LINE
  8
21
 10
36.3262
 20
26.4541
 30
0.0000
 11
36.2500
 21
26.4541
 31
0.0000
  0
ARC
  8
21
 10
37.0127
 20
26.9685
 30
0.0000
 40
0.1715
 50
0.0000
 51
90.0000
  0
ARC
  8
21
 10
37.0127
 20
26.9196
 30
0.0000
 40
0.2203
 50
90.0000
 51
162.0547
  0
ARC
  8
21
 10
37.0000
 20
26.9685
 30
0.0000
 40
0.1842
 50
313.6028
 51
360.0000
  0
LINE
  8
21
 10
37.1270
 20
26.8351
 30
0.0000
 11
36.8032
 21
26.4541
 31
0.0000
  0
LINE
  8
21
 10
36.8032
 20
26.4541
 30
0.0000
 11
37.1842
 21
26.4541
 31
0.0000
  0
POINT
  8
23
 10
30.1837
 20
21.4630
 30
0.0000
  0
LINE
  8
21
 10
34.6837
 20
15.4630
 30
0.0000
 11
31.6837
 21
15.4630
 31
0.0000
  0
LINE
  8
21
 10
31.6837
 20
15.4630
 30
0.0000
 11
28.6837
 21
15.4630
 31
0.0000
  0
LINE
  8
21
 10
28.6837
 20
15.4630
 30
0.0000
 11
25.6837
 21
15.4630
 31
0.0000
  0
LINE
  8
21
 10
34.6837
 20
15.4630
 30
0.0000
 11
34.6837
 21
25.9630
 31
0.0000
  0
LINE
  8
21
 10
34.6837
 20
25.9630
 30
0.0000
 11
29.9837
 21
25.9630
 31
0.0000
  0
LINE
  8
21
 10
29.9837
 20
25.9630
 30
0.0000
 11
25.6837
 21
25.9630
 31
0.0000
  0
LINE
  8
21
 10
25.6837
 20
25.9630
 30
0.0000
 11
25.6837
 21
15.4630
 31
0.0000
  0
LINE
  8
21
 10
31.6837
 20
15.4630
 30
0.0000
 11
31.6837
 21
17.4630
 31
0.0000
  0
LINE
  8
21
 10
31.6837
 20
17.4630
 30
0.0000
 11
28.6837
 21
17.4630
 31
0.0000
  0
LINE
  8
21
 10
28.6837
 20
17.4630
 30
0.0000
 11
28.6837
 21
15.4630
 31
0.0000
  0
LINE
  8
21
 10
30.3837
 20
26.0630
 30
0.0000
 11
30.3837
 21
28.1630
 31
0.0000
  0
LINE
  8
21
 10
30.3837
 20
28.1630
 30
0.0000
 11
29.9837
 21
28.1630
 31
0.0000
  0
LINE
  8
21
 10
29.9837
 20
28.1630
 30
0.0000
 11
29.9837
 21
25.9630
 31
0.0000
  0
CIRCLE
  8
21
 10
30.1837
 20
21.4630
 30
0.0000
 40
3.1623
  0
CIRCLE
  8
21
 10
30.1837
 20
21.4630
 30
0.0000
 40
2.6907
  0
LINE
  8
21
 10
26.2340
 20
27.1399
 30
0.0000
 11
26.2340
 21
26.6065
 31
0.0000
  0
ARC
  8
21
 10
26.0816
 20
26.6065
 30
0.0000
 40
0.1524
 50
270.0000
 51
0.0000
  0
LINE
  8
21
 10
26.0816
 20
26.4541
 30
0.0000
 11
26.0054
 21
26.4541
 31
0.0000
  0
LINE
  8
21
 10
26.5585
 20
26.4541
 30
0.0000
 11
26.7490
 21
26.4541
 31
0.0000
  0
ARC
  8
21
 10
26.7490
 20
26.6446
 30
0.0000
 40
0.1905
 50
270.0000
 51
90.0000
  0
LINE
  8
21
 10
26.5585
 20
27.1399
 30
0.0000
 11
26.7871
 21
27.1399
 31
0.0000
  0
ARC
  8
21
 10
26.7871
 20
26.9875
 30
0.0000
 40
0.1524
 50
270.0000
 51
90.0000
  0
LINE
  8
21
 10
26.7871
 20
26.8351
 30
0.0000
 11
26.6347
 21
26.8351
 31
0.0000
  0
POINT
  8
23
 10
20.7010
 20
21.4630
 30
0.0000
  0
LINE
  8
21
 10
25.2010
 20
15.4630
 30
0.0000
 11
22.2010
 21
15.4630
 31
0.0000
  0
LINE
  8
21
 10
22.2010
 20
15.4630
 30
0.0000
 11
19.2010
 21
15.4630
 31
0.0000
  0
LINE
  8
21
 10
19.2010
 20
15.4630
 30
0.0000
 11
16.2010
 21
15.4630
 31
0.0000
  0
LINE
  8
21
 10
25.2010
 20
15.4630
 30
0.0000
 11
25.2010
 21
25.9630
 31
0.0000
  0
LINE
  8
21
 10
25.2010
 20
25.9630
 30
0.0000
 11
20.5010
 21
25.9630
 31
0.0000
  0
LINE
  8
21
 10
20.5010
 20
25.9630
 30
0.0000
 11
16.2010
 21
25.9630
 31
0.0000
  0
LINE
  8
21
 10
16.2010
 20
25.9630
 30
0.0000
 11
16.2010
 21
15.4630
 31
0.0000
  0
LINE
  8
21
 10
22.2010
 20
15.4630
 30
0.0000
 11
22.2010
 21
17.4630
 31
0.0000
  0
LINE
  8
21
 10
22.2010
 20
17.4630
 30
0.0000
 11
19.2010
 21
17.4630
 31
0.0000
  0
LINE
  8
21
 10
19.2010
 20
17.4630
 30
0.0000
 11
19.2010
 21
15.4630
 31
0.0000
  0
LINE
  8
21
 10
20.9010
 20
26.0630
 30
0.0000
 11
20.9010
 21
28.1630
 31
0.0000
  0
LINE
  8
21
 10
20.9010
 20
28.1630
 30
0.0000
 11
20.5010
 21
28.1630
 31
0.0000
  0
LINE
  8
21
 10
20.5010
 20
28.1630
 30
0.0000
 11
20.5010
 21
25.9630
 31
0.0000
  0
CIRCLE
  8
21
 10
20.7010
 20
21.4630
 30
0.0000
 40
3.1623
  0
CIRCLE
  8
21
 10
20.7010
 20
21.4630
 30
0.0000
 40
2.6907
  0
LINE
  8
21
 10
17.5133
 20
27.1399
 30
0.0000
 11
17.5133
 21
26.6065
 31
0.0000
  0
ARC
  8
21
 10
17.3609
 20
26.6065
 30
0.0000
 40
0.1524
 50
270.0000
 51
0.0000
  0
LINE
  8
21
 10
17.3609
 20
26.4541
 30
0.0000
 11
17.2847
 21
26.4541
 31
0.0000
  0
LINE
  8
21
 10
17.9902
 20
27.1399
 30
0.0000
 11
17.8378
 21
26.6065
 31
0.0000
  0
LINE
  8
21
 10
17.8378
 20
26.6065
 30
0.0000
 11
18.2188
 21
26.6065
 31
0.0000
  0
LINE
  8
21
 10
18.1045
 20
26.7589
 30
0.0000
 11
18.1045
 21
26.4541
 31
0.0000
  0
POINT
  8
23
 10
20.7010
 20
8.7630
 30
0.0000
  0
LINE
  8
21
 10
16.2010
 20
14.7630
 30
0.0000
 11
19.2010
 21
14.7630
 31
0.0000
  0
LINE
  8
21
 10
19.2010
 20
14.7630
 30
0.0000
 11
22.2010
 21
14.7630
 31
0.0000
  0
LINE
  8
21
 10
22.2010
 20
14.7630
 30
0.0000
 11
25.2010
 21
14.7630
 31
0.0000
  0
LINE
  8
21
 10
16.2010
 20
14.7630
 30
0.0000
 11
16.2010
 21
4.2630
 31
0.0000
  0
LINE
  8
21
 10
16.2010
 20
4.2630
 30
0.0000
 11
20.9010
 21
4.2630
 31
0.0000
  0
LINE
  8
21
 10
20.9010
 20
4.2630
 30
0.0000
 11
25.2010
 21
4.2630
 31
0.0000
  0
LINE
  8
21
 10
25.2010
 20
4.2630
 30
0.0000
 11
25.2010
 21
14.7630
 31
0.0000
  0
LINE
  8
21
 10
19.2010
 20
14.7630
 30
0.0000
 11
19.2010
 21
12.7630
 31
0.0000
  0
LINE
  8
21
 10
19.2010
 20
12.7630
 30
0.0000
 11
22.2010
 21
12.7630
 31
0.0000
  0
LINE
  8
21
 10
22.2010
 20
12.7630
 30
0.0000
 11
22.2010
 21
14.7630
 31
0.0000
  0
LINE
  8
21
 10
20.5010
 20
4.1630
 30
0.0000
 11
20.5010
 21
2.0630
 31
0.0000
  0
LINE
  8
21
 10
20.5010
 20
2.0630
 30
0.0000
 11
20.9010
 21
2.0630
 31
0.0000
  0
LINE
  8
21
 10
20.9010
 20
2.0630
 30
0.0000
 11
20.9010
 21
4.2630
 31
0.0000
  0
CIRCLE
  8
21
 10
20.7010
 20
8.7630
 30
0.0000
 40
3.1623
  0
CIRCLE
  8
21
 10
20.7010
 20
8.7630
 30
0.0000
 40
2.6907
  0
LINE
  8
21
 10
17.8238
 20
3.6449
 30
0.0000
 11
17.8238
 21
3.1115
 31
0.0000
  0
ARC
  8
21
 10
17.6714
 20
3.1115
 30
0.0000
 40
0.1524
 50
270.0000
 51
0.0000
  0
LINE
  8
21
 10
17.6714
 20
2.9591
 30
0.0000
 11
17.5952
 21
2.9591
 31
0.0000
  0
LINE
  8
21
 10
18.1483
 20
2.9591
 30
0.0000
 11
18.3769
 21
2.9591
 31
0.0000
  0
ARC
  8
21
 10
18.3769
 20
3.1115
 30
0.0000
 40
0.1524
 50
270.0000
 51
0.0000
  0
LINE
  8
21
 10
18.5293
 20
3.1115
 30
0.0000
 11
18.5293
 21
3.1877
 31
0.0000
  0
ARC
  8
21
 10
18.3769
 20
3.1877
 30
0.0000
 40
0.1524
 50
0.0000
 51
90.0000
  0
LINE
  8
21
 10
18.3769
 20
3.3401
 30
0.0000
 11
18.1483
 21
3.3401
 31
0.0000
  0
LINE
  8
21
 10
18.1483
 20
3.3401
 30
0.0000
 11
18.1483
 21
3.6449
 31
0.0000
  0
LINE
  8
21
 10
18.1483
 20
3.6449
 30
0.0000
 11
18.5293
 21
3.6449
 31
0.0000
  0
POINT
  8
23
 10
30.1837
 20
8.7630
 30
0.0000
  0
LINE
  8
21
 10
25.6837
 20
14.7630
 30
0.0000
 11
28.6837
 21
14.7630
 31
0.0000
  0
LINE
  8
21
 10
28.6837
 20
14.7630
 30
0.0000
 11
31.6837
 21
14.7630
 31
0.0000
  0
LINE
  8
21
 10
31.6837
 20
14.7630
 30
0.0000
 11
34.6837
 21
14.7630
 31
0.0000
  0
LINE
  8
21
 10
25.6837
 20
14.7630
 30
0.0000
 11
25.6837
 21
4.2630
 31
0.0000
  0
LINE
  8
21
 10
25.6837
 20
4.2630
 30
0.0000
 11
30.3837
 21
4.2630
 31
0.0000
  0
LINE
  8
21
 10
30.3837
 20
4.2630
 30
0.0000
 11
34.6837
 21
4.2630
 31
0.0000
  0
LINE
  8
21
 10
34.6837
 20
4.2630
 30
0.0000
 11
34.6837
 21
14.7630
 31
0.0000
  0
LINE
  8
21
 10
28.6837
 20
14.7630
 30
0.0000
 11
28.6837
 21
12.7630
 31
0.0000
  0
LINE
  8
21
 10
28.6837
 20
12.7630
 30
0.0000
 11
31.6837
 21
12.7630
 31
0.0000
  0
LINE
  8
21
 10
31.6837
 20
12.7630
 30
0.0000
 11
31.6837
 21
14.7630
 31
0.0000
  0
LINE
  8
21
 10
29.9837
 20
4.1630
 30
0.0000
 11
29.9837
 21
2.0630
 31
0.0000
  0
LINE
  8
21
 10
29.9837
 20
2.0630
 30
0.0000
 11
30.3837
 21
2.0630
 31
0.0000
  0
LINE
  8
21
 10
30.3837
 20
2.0630
 30
0.0000
 11
30.3837
 21
4.2630
 31
0.0000
  0
CIRCLE
  8
21
 10
30.1837
 20
8.7630
 30
0.0000
 40
3.1623
  0
CIRCLE
  8
21
 10
30.1837
 20
8.7630
 30
0.0000
 40
2.6907
  0
LINE
  8
21
 10
27.3064
 20
3.6449
 30
0.0000
 11
27.3064
 21
3.1115
 31
0.0000
  0
ARC
  8
21
 10
27.1540
 20
3.1115
 30
0.0000
 40
0.1524
 50
270.0000
 51
0.0000
  0
LINE
  8
21
 10
27.1540
 20
2.9591
 30
0.0000
 11
27.0778
 21
2.9591
 31
0.0000
  0
LINE
  8
21
 10
27.6310
 20
3.3401
 30
0.0000
 11
27.8596
 21
3.3401
 31
0.0000
  0
ARC
  8
21
 10
27.8596
 20
3.1877
 30
0.0000
 40
0.1524
 50
0.0000
 51
90.0000
  0
LINE
  8
21
 10
28.0120
 20
3.1877
 30
0.0000
 11
28.0120
 21
3.1496
 31
0.0000
  0
ARC
  8
21
 10
27.8215
 20
3.1496
 30
0.0000
 40
0.1905
 50
180.0000
 51
0.0000
  0
LINE
  8
21
 10
27.6310
 20
3.1496
 30
0.0000
 11
27.6310
 21
3.3401
 31
0.0000
  0
ARC
  8
21
 10
27.9358
 20
3.3401
 30
0.0000
 40
0.3048
 50
90.0000
 51
180.0000
  0
POINT
  8
23
 10
39.6663
 20
8.7630
 30
0.0000
  0
LINE
  8
21
 10
35.1663
 20
14.7630
 30
0.0000
 11
38.1663
 21
14.7630
 31
0.0000
  0
LINE
  8
21
 10
38.1663
 20
14.7630
 30
0.0000
 11
41.1663
 21
14.7630
 31
0.0000
  0
LINE
  8
21
 10
41.1663
 20
14.7630
 30
0.0000
 11
44.1663
 21
14.7630
 31
0.0000
  0
LINE
  8
21
 10
35.1663
 20
14.7630
 30
0.0000
 11
35.1663
 21
4.2630
 31
0.0000
  0
LINE
  8
21
 10
35.1663
 20
4.2630
 30
0.0000
 11
39.8663
 21
4.2630
 31
0.0000
  0
LINE
  8
21
 10
39.8663
 20
4.2630
 30
0.0000
 11
44.1663
 21
4.2630
 31
0.0000
  0
LINE
  8
21
 10
44.1663
 20
4.2630
 30
0.0000
 11
44.1663
 21
14.7630
 31
0.0000
  0
LINE
  8
21
 10
38.1663
 20
14.7630
 30
0.0000
 11
38.1663
 21
12.7630
 31
0.0000
  0
LINE
  8
21
 10
38.1663
 20
12.7630
 30
0.0000
 11
41.1663
 21
12.7630
 31
0.0000
  0
LINE
  8
21
 10
41.1663
 20
12.7630
 30
0.0000
 11
41.1663
 21
14.7630
 31
0.0000
  0
LINE
  8
21
 10
39.4663
 20
4.1630
 30
0.0000
 11
39.4663
 21
2.0630
 31
0.0000
  0
LINE
  8
21
 10
39.4663
 20
2.0630
 30
0.0000
 11
39.8663
 21
2.0630
 31
0.0000
  0
LINE
  8
21
 10
39.8663
 20
2.0630
 30
0.0000
 11
39.8663
 21
4.2630
 31
0.0000
  0
CIRCLE
  8
21
 10
39.6663
 20
8.7630
 30
0.0000
 40
3.1623
  0
CIRCLE
  8
21
 10
39.6663
 20
8.7630
 30
0.0000
 40
2.6907
  0
LINE
  8
21
 10
36.9161
 20
3.6449
 30
0.0000
 11
36.9161
 21
3.1115
 31
0.0000
  0
ARC
  8
21
 10
36.7637
 20
3.1115
 30
0.0000
 40
0.1524
 50
270.0000
 51
0.0000
  0
LINE
  8
21
 10
36.7637
 20
2.9591
 30
0.0000
 11
36.6875
 21
2.9591
 31
0.0000
  0
LINE
  8
21
 10
37.2406
 20
3.5687
 30
0.0000
 11
37.2406
 21
3.6449
 31
0.0000
  0
LINE
  8
21
 10
37.2406
 20
3.6449
 30
0.0000
 11
37.6216
 21
3.6449
 31
0.0000
  0
LINE
  8
21
 10
37.6216
 20
3.6449
 30
0.0000
 11
37.4311
 21
2.9591
 31
0.0000
  0
POINT
  8
23
 10
49.1490
 20
8.7630
 30
0.0000
  0
LINE
  8
21
 10
44.6490
 20
14.7630
 30
0.0000
 11
47.6490
 21
14.7630
 31
0.0000
  0
LINE
  8
21
 10
47.6490
 20
14.7630
 30
0.0000
 11
50.6490
 21
14.7630
 31
0.0000
  0
LINE
  8
21
 10
50.6490
 20
14.7630
 30
0.0000
 11
53.6490
 21
14.7630
 31
0.0000
  0
LINE
  8
21
 10
44.6490
 20
14.7630
 30
0.0000
 11
44.6490
 21
4.2630
 31
0.0000
  0
LINE
  8
21
 10
44.6490
 20
4.2630
 30
0.0000
 11
49.3490
 21
4.2630
 31
0.0000
  0
LINE
  8
21
 10
49.3490
 20
4.2630
 30
0.0000
 11
53.6490
 21
4.2630
 31
0.0000
  0
LINE
  8
21
 10
53.6490
 20
4.2630
 30
0.0000
 11
53.6490
 21
14.7630
 31
0.0000
  0
LINE
  8
21
 10
47.6490
 20
14.7630
 30
0.0000
 11
47.6490
 21
12.7630
 31
0.0000
  0
LINE
  8
21
 10
47.6490
 20
12.7630
 30
0.0000
 11
50.6490
 21
12.7630
 31
0.0000
  0
LINE
  8
21
 10
50.6490
 20
12.7630
 30
0.0000
 11
50.6490
 21
14.7630
 31
0.0000
  0
LINE
  8
21
 10
48.9490
 20
4.1630
 30
0.0000
 11
48.9490
 21
2.0630
 31
0.0000
  0
LINE
  8
21
 10
48.9490
 20
2.0630
 30
0.0000
 11
49.3490
 21
2.0630
 31
0.0000
  0
LINE
  8
21
 10
49.3490
 20
2.0630
 30
0.0000
 11
49.3490
 21
4.2630
 31
0.0000
  0
CIRCLE
  8
21
 10
49.1490
 20
8.7630
 30
0.0000
 40
3.1623
  0
CIRCLE
  8
21
 10
49.1490
 20
8.7630
 30
0.0000
 40
2.6907
  0
LINE
  8
21
 10
46.7798
 20
3.6449
 30
0.0000
 11
46.7798
 21
3.1115
 31
0.0000
  0
ARC
  8
21
 10
46.6274
 20
3.1115
 30
0.0000
 40
0.1524
 50
270.0000
 51
0.0000
  0
LINE
  8
21
 10
46.6274
 20
2.9591
 30
0.0000
 11
46.5512
 21
2.9591
 31
0.0000
  0
ARC
  8
21
 10
47.2948
 20
3.1496
 30
0.0000
 40
0.1905
 50
0.0000
 51
180.0000
  0
ARC
  8
21
 10
47.2948
 20
3.1496
 30
0.0000
 40
0.1905
 50
180.0000
 51
0.0000
  0
ARC
  8
21
 10
47.2948
 20
3.4925
 30
0.0000
 40
0.1524
 50
0.0000
 51
180.0000
  0
ARC
  8
21
 10
47.2948
 20
3.4925
 30
0.0000
 40
0.1524
 50
180.0000
 51
0.0000
  0
POINT
  8
23
 10
8.3820
 20
19.5580
 30
0.0000
  0
LINE
  8
51
 10
12.1830
 20
23.1130
 30
0.0000
 11
12.1830
 21
7.1130
 31
0.0000
  0
LINE
  8
51
 10
12.1830
 20
7.1130
 30
0.0000
 11
-4.4670
 21
7.1130
 31
0.0000
  0
LINE
  8
51
 10
-4.4670
 20
7.1130
 30
0.0000
 11
-4.4670
 21
23.1130
 31
0.0000
  0
LINE
  8
51
 10
-4.4670
 20
23.1130
 30
0.0000
 11
12.1830
 21
23.1130
 31
0.0000
  0
LINE
  8
51
 10
13.1830
 20
25.2130
 30
0.0000
 11
13.1830
 21
5.4380
 31
0.0000
  0
LINE
  8
51
 10
13.1830
 20
5.4380
 30
0.0000
 11
-5.4670
 21
5.4380
 31
0.0000
  0
LINE
  8
51
 10
-5.4670
 20
5.4380
 30
0.0000
 11
-5.4670
 21
25.2130
 31
0.0000
  0
LINE
  8
51
 10
-5.4670
 20
25.2130
 30
0.0000
 11
13.1830
 21
25.2130
 31
0.0000
  0
LINE
  8
21
 10
6.5820
 20
23.1130
 30
0.0000
 11
12.1830
 21
23.1130
 31
0.0000
  0
LINE
  8
21
 10
12.1830
 20
23.1130
 30
0.0000
 11
12.1830
 21
7.1130
 31
0.0000
  0
LINE
  8
21
 10
12.1830
 20
7.1130
 30
0.0000
 11
6.5820
 21
7.1130
 31
0.0000
  0
LINE
  8
21
 10
4.0820
 20
23.1130
 30
0.0000
 11
-4.4670
 21
23.1130
 31
0.0000
  0
LINE
  8
21
 10
-4.4670
 20
23.1130
 30
0.0000
 11
-4.4670
 21
7.1130
 31
0.0000
  0
LINE
  8
21
 10
-4.4670
 20
7.1130
 30
0.0000
 11
3.5820
 21
7.1130
 31
0.0000
  0
LINE
  8
21
 10
8.3580
 20
24.1130
 30
0.0000
 11
8.3580
 21
24.1130
 31
0.0000
  0
ARC
  8
21
 10
8.3580
 20
24.1630
 30
0.0000
 40
0.0500
 50
270.0000
 51
90.0000
  0
LINE
  8
21
 10
8.3580
 20
24.2130
 30
0.0000
 11
8.3580
 21
24.2130
 31
0.0000
  0
ARC
  8
21
 10
8.3580
 20
24.1630
 30
0.0000
 40
0.0500
 50
90.0000
 51
270.0000
  0
CIRCLE
  8
20
 10
2.0320
 20
20.8280
 30
0.0000
 40
1.5850
  0
CIRCLE
  8
20
 10
2.0320
 20
9.3980
 30
0.0000
 40
1.5850
  0
ENDSEC
  0
EOF
